<?xml version="1.0" standalone="no"?>
<!DOCTYPE svg PUBLIC "-//W3C//DTD SVG 20010904//EN"
 "http://www.w3.org/TR/2001/REC-SVG-20010904/DTD/svg10.dtd">
<svg version="1.0" xmlns="http://www.w3.org/2000/svg"
 width="512.000000pt" height="512.000000pt" viewBox="0 0 512.000000 512.000000"
 preserveAspectRatio="xMidYMid meet">
<metadata>
Created by potrace 1.14, written by Peter Selinger 2001-2017
</metadata>
<g transform="translate(0.000000,512.000000) scale(0.100000,-0.100000)"
fill="#000000" stroke="none">
<path d="M397 5104 c-32 -7 -83 -26 -115 -41 -75 -35 -188 -148 -225 -225 -60
-126 -57 11 -57 -2278 0 -2286 -3 -2151 57 -2278 36 -77 149 -189 227 -225
129 -61 -11 -58 2308 -55 l2123 3 68 27 c83 34 138 71 198 134 64 69 96 128
119 220 20 78 20 108 18 2204 l-3 2125 -27 68 c-68 169 -197 281 -370 322 -92
22 -4231 21 -4321 -1z m3388 -1349 c393 -57 643 -227 791 -539 86 -182 121
-385 111 -651 -13 -343 -108 -605 -306 -841 -102 -123 -281 -247 -439 -304
-200 -72 -335 -85 -667 -65 -132 8 -356 15 -497 15 l-258 0 0 79 0 79 98 11
c53 7 112 15 130 18 l32 5 0 994 c0 788 -3 994 -12 995 -7 0 -62 8 -123 17
l-110 18 0 79 0 80 377 6 c208 3 381 9 385 12 12 13 387 7 488 -8z m-1715 -22
c0 -10 9 -112 20 -228 11 -115 20 -220 20 -233 0 -22 -2 -23 -91 -20 l-91 3
-45 151 -45 152 -172 6 c-94 3 -273 8 -398 12 l-228 6 0 -451 0 -451 83 0 c45
0 166 3 268 7 l186 6 22 125 c12 69 23 128 26 130 2 3 42 5 87 6 l83 1 3 -367
2 -368 -89 0 -89 0 -11 63 c-6 34 -16 94 -22 133 l-11 71 -121 7 c-66 3 -187
6 -269 6 l-148 0 0 -475 c0 -446 1 -475 18 -475 9 0 188 7 397 15 209 8 405
15 435 15 l55 0 84 200 c46 110 88 200 93 200 6 0 48 -12 94 -26 57 -17 84
-30 84 -40 0 -16 -76 -482 -85 -521 l-5 -23 -890 0 -890 0 0 74 c0 41 4 77 8
80 5 3 49 10 98 16 49 5 106 13 127 16 l37 6 0 993 0 993 -117 17 c-65 9 -124
18 -130 21 -9 2 -13 28 -13 84 l0 80 815 0 c769 0 815 -1 815 -17z"/>
<path d="M3220 3587 l-95 -12 -3 -1011 -2 -1012 22 -6 c64 -18 313 -28 424
-18 204 20 343 82 475 212 128 126 205 285 251 512 30 151 32 469 4 622 -71
390 -262 616 -588 696 -103 26 -350 34 -488 17z"/>
</g>
</svg>
